# xmcd CD database file
#
# Track frame offsets:
#	150
#	13743
#	28178
#	54598
#	73661
#	97455
#	128810
#	156428
#	186518
#	212423
#	226503
#	247308
#	280026
#	323730
#
# Disc length: 4559 seconds
#
# Revision: 10
# Processed by: cddbd v1.5.2PL0 Copyright (c) Steve Scherf et al.
# Submitted via: CDex 1.70beta3
#
DISCID=cf11cd0e
DTITLE=Janis Joplin - Live At Winterland '68
DYEAR=1968
DGENRE=Rock
TTITLE0=Down On Me
TTITLE1=Flower In The Sun
TTITLE2=I Need A Man To Love
TTITLE3=Bye Bye Baby
TTITLE4=Easy Rider
TTITLE5=Combination Of The Two
TTITLE6=Farewell Song
TTITLE7=Piece Of My Heart
TTITLE8=Catch Me Daddy
TTITLE9=Magic Of Love
TTITLE10=Summertime (From "Porgy and Bess")
TTITLE11=Light Is Faster Than Sound
TTITLE12=Ball And Chain
TTITLE13=Down On Me - (second version)
EXTD=YEAR: 1968
EXTT0=
EXTT1=
EXTT2=
EXTT3=
EXTT4=
EXTT5=
EXTT6=
EXTT7=
EXTT8=
EXTT9=
EXTT10=
EXTT11=
EXTT12=
EXTT13=
PLAYORDER=
